<mxfile host="app.diagrams.net" modified="2024-04-11T13:23:10.172Z" agent="Mozilla/5.0 (X11; Linux x86_64) AppleWebKit/537.36 (KHTML, like Gecko) Chrome/123.0.0.0 Safari/537.36" version="24.2.3" etag="XCWTpP0-IpXrhcg3Kamr" type="github">
  <diagram name="Page-1" id="tV7omZ434A2QzFAnHzZ6">
    <mxGraphModel>
      <root>
        <mxCell id="0" />
        <mxCell id="1" parent="0" />
      </root>
    </mxGraphModel>
  </diagram>
</mxfile>
